<svg width="53" height="64" viewBox="0 0 53 64" fill="none" xmlns="http://www.w3.org/2000/svg">
<g clip-path="url(#clip0_234_375)">
<path fill-rule="evenodd" clip-rule="evenodd" d="M8.31168 14.0501C8.94793 12.2513 10.006 10.7186 11.3546 9.64207C12.7032 8.56554 14.2829 7.9926 15.8977 7.99434H36.8814C40.1797 7.99434 43.1614 10.3767 44.4609 14.0501L47.0731 21.4368C47.3205 22.1363 47.7658 22.7119 48.3265 23.0517C49.9756 24.051 51.1465 25.9097 51.5093 28.0961L52.6143 34.8074C52.7231 35.4509 52.7759 36.1064 52.7759 36.766V38.4168C52.7759 41.6705 51.4895 44.5844 49.4776 46.3991V53.9618C49.4776 54.4918 49.3038 55.0002 48.9946 55.375C48.6853 55.7498 48.2658 55.9604 47.8284 55.9604H41.2319C40.7945 55.9604 40.375 55.7498 40.0658 55.375C39.7565 55.0002 39.5827 54.4918 39.5827 53.9618V48.6136C35.3213 48.8054 30.5289 48.9653 26.3896 48.9653C22.2502 48.9653 17.4578 48.8054 13.1964 48.6136V53.9618C13.1964 54.4918 13.0227 55.0002 12.7134 55.375C12.4041 55.7498 11.9847 55.9604 11.5473 55.9604H4.95072C4.51334 55.9604 4.09388 55.7498 3.7846 55.375C3.47533 55.0002 3.30158 54.4918 3.30158 53.9618V46.3991C1.28963 44.5844 0.0032959 41.6705 0.0032959 38.4168V36.766C0.00384945 36.1082 0.057984 35.4522 0.164912 34.8074L1.26984 28.0921C1.63265 25.9097 2.80354 24.047 4.44939 23.0517C5.01271 22.7105 5.45797 22.1383 5.70603 21.4368L8.31828 14.0501H8.31168ZM9.89486 39.9717C10.7696 39.9717 11.6085 39.5506 12.2271 38.801C12.8456 38.0513 13.1931 37.0346 13.1931 35.9745C13.1931 34.9144 12.8456 33.8977 12.2271 33.1481C11.6085 32.3985 10.7696 31.9774 9.89486 31.9774C9.0201 31.9774 8.18116 32.3985 7.56262 33.1481C6.94407 33.8977 6.59657 34.9144 6.59657 35.9745C6.59657 37.0346 6.94407 38.0513 7.56262 38.801C8.18116 39.5506 9.0201 39.9717 9.89486 39.9717ZM42.8777 39.9717C43.7525 39.9717 44.5914 39.5506 45.21 38.801C45.8285 38.0513 46.176 37.0346 46.176 35.9745C46.176 34.9144 45.8285 33.8977 45.21 33.1481C44.5914 32.3985 43.7525 31.9774 42.8777 31.9774C42.003 31.9774 41.164 32.3985 40.5455 33.1481C39.9269 33.8977 39.5794 34.9144 39.5794 35.9745C39.5794 37.0346 39.9269 38.0513 40.5455 38.801C41.164 39.5506 42.003 39.9717 42.8777 39.9717ZM19.7897 31.9774C18.915 31.9774 18.076 32.3985 17.4575 33.1481C16.8389 33.8977 16.4914 34.9144 16.4914 35.9745C16.4914 37.0346 16.8389 38.0513 17.4575 38.801C18.076 39.5506 18.915 39.9717 19.7897 39.9717H32.9829C33.8576 39.9717 34.6965 39.5506 35.3151 38.801C35.9336 38.0513 36.2811 37.0346 36.2811 35.9745C36.2811 34.9144 35.9336 33.8977 35.3151 33.1481C34.6965 32.3985 33.8576 31.9774 32.9829 31.9774H19.7897ZM9.58482 20.7413L12.738 13.0947C12.8751 12.7632 13.0856 12.4844 13.346 12.2896C13.6063 12.0947 13.9063 11.9915 14.2123 11.9915H38.5603C38.8663 11.9915 39.1662 12.0947 39.4266 12.2896C39.687 12.4844 39.8975 12.7632 40.0346 13.0947L43.1878 20.7413C43.3167 21.0637 43.3732 21.4216 43.3517 21.7789C43.3302 22.1362 43.2313 22.4803 43.0651 22.7765C42.8989 23.0728 42.6712 23.3108 42.4049 23.4664C42.1387 23.6221 41.8433 23.69 41.5485 23.6632C38.5471 23.3715 30.4992 22.9837 26.3863 22.9837C22.2733 22.9837 14.2222 23.3715 11.2241 23.6632C10.9293 23.69 10.6339 23.6221 10.3676 23.4664C10.1014 23.3108 9.87368 23.0728 9.70748 22.7765C9.54127 22.4803 9.44242 22.1362 9.42088 21.7789C9.39935 21.4216 9.45589 21.0637 9.58482 20.7413Z" fill="#E65100"/>
</g>
<defs>
<clipPath id="clip0_234_375">
<rect width="52.7726" height="63.9547" fill="white"/>
</clipPath>
</defs>
</svg>
