<svg width="60" height="58" viewBox="0 0 60 58" fill="none" xmlns="http://www.w3.org/2000/svg">
<g clip-path="url(#clip0_234_368)">
<path d="M59.133 55.5928C59.133 56.8634 58.0915 57.8899 56.8023 57.8899H3.1964C1.90724 57.8899 0.865711 56.8634 0.865711 55.5928V25.4427H59.133V55.5928ZM3.1964 5.62977H15.4325V1.03547C15.4325 0.719611 15.6947 0.461182 16.0152 0.461182H20.0939C20.4144 0.461182 20.6766 0.719611 20.6766 1.03547V5.62977H39.3221V1.03547C39.3221 0.719611 39.5843 0.461182 39.9048 0.461182H43.9835C44.304 0.461182 44.5662 0.719611 44.5662 1.03547V5.62977H56.8023C58.0915 5.62977 59.133 6.65631 59.133 7.92692V20.5612H0.865711V7.92692C0.865711 6.65631 1.90724 5.62977 3.1964 5.62977Z" fill="#E65100"/>
</g>
<defs>
<clipPath id="clip0_234_368">
<rect width="58.2673" height="57.4287" fill="white" transform="matrix(-1 0 0 1 59.133 0.461182)"/>
</clipPath>
</defs>
</svg>
