<svg width="52" height="54" viewBox="0 0 52 54" fill="none" xmlns="http://www.w3.org/2000/svg">
<path d="M25.9695 53.1903C21.2836 50.0073 16.9402 46.5177 12.9847 42.7582C7.04886 37.1122 3.26063e-06 28.7039 3.26063e-06 20.6914C-0.00257105 16.5994 1.51925 12.5988 4.37286 9.1958C7.22648 5.79282 11.2836 3.14048 16.0308 1.57444C20.778 0.0084105 26.0019 -0.400917 31.0414 0.398263C36.0808 1.19744 40.7093 3.16921 44.341 6.06402C46.759 7.98103 48.6755 10.2609 49.9797 12.7717C51.2839 15.2825 51.9498 17.9743 51.9389 20.6914C51.9389 28.7039 44.8901 37.1122 38.9542 42.7582C34.9987 46.5177 30.6553 50.0072 25.9695 53.1903ZM25.9695 11.8281C23.0177 11.8281 20.1868 12.7619 18.0995 14.4241C16.0123 16.0863 14.8397 18.3407 14.8397 20.6914C14.8397 23.0421 16.0123 25.2966 18.0995 26.9588C20.1868 28.621 23.0177 29.5548 25.9695 29.5548C28.9213 29.5548 31.7522 28.621 33.8394 26.9588C35.9266 25.2966 37.0992 23.0421 37.0992 20.6914C37.0992 18.3407 35.9266 16.0863 33.8394 14.4241C31.7522 12.7619 28.9213 11.8281 25.9695 11.8281Z" fill="#E65100"/>
</svg>
